<?xml version="1.0" encoding="utf-8"?>
<!-- Generator: Adobe Illustrator 25.4.0, SVG Export Plug-In . SVG Version: 6.00 Build 0)  -->
<svg version="1.1" id="Layer_1" xmlns="http://www.w3.org/2000/svg" xmlns:xlink="http://www.w3.org/1999/xlink" x="0px" y="0px"
	 viewBox="0 0 515.7 305.8" style="enable-background:new 0 0 515.7 305.8;" xml:space="preserve">
<style type="text/css">
	.st0{fill:#00558C;}
	.st1{fill:#888A8C;}
</style>
<path class="st0" d="M257.9,0L0,257.9h101.1v-0.1h0l0,0l0,0l54-54l54.1,54.1h306.5L257.9,0z M239.3,185.8l-33.1-33.1l50.9-50.9
	l84,84H239.3z M257.2,101.8L257.2,101.8L257.2,101.8l0-0.1l0,0V101.8z"/>
<g>
	<g>
		<path class="st0" d="M0.3,305.8v-30h25.7c2.4,0,4.1,0.5,5.2,1.4c1.1,0.9,1.6,2.4,1.6,4.4v6.7c0,2-0.5,3.5-1.6,4.4
			c-1.1,0.9-2.8,1.4-5.2,1.4H7.2v11.7L0.3,305.8L0.3,305.8z M22.9,281H7.2v8h15.7c1.2,0,2-0.2,2.5-0.5c0.4-0.4,0.7-1,0.7-1.9v-3.2
			c0-0.9-0.2-1.5-0.7-1.8C24.9,281.2,24.1,281,22.9,281z"/>
		<path class="st0" d="M37.8,305.8l17-30h6.7l17.2,30h-7.8l-3.6-6.6h-19l-3.5,6.6H37.8z M51.2,293.8h13.1l-6.5-12.2L51.2,293.8z"/>
		<path class="st0" d="M88.3,305.8v-30h7v24.4h22.5v5.6H88.3z"/>
		<path class="st0" d="M122.3,305.8l17-30h6.7l17.2,30h-7.8l-3.6-6.6h-19l-3.5,6.6H122.3z M135.7,293.8h13.1l-6.5-12.2L135.7,293.8z
			"/>
		<path class="st0" d="M198,281.2h-18.8v19H198v-6.4l7,1.5v3.5c0,2.7-0.5,4.6-1.6,5.6s-3,1.5-5.9,1.5h-17.9c-2.9,0-4.9-0.5-5.9-1.5
			c-1-1-1.5-2.9-1.5-5.6v-15.8c0-2.7,0.5-4.6,1.5-5.6s3-1.5,5.9-1.5h17.9c2.9,0,4.9,0.5,5.9,1.5s1.6,2.9,1.6,5.6v2.8l-7,1.1
			L198,281.2L198,281.2z"/>
		<path class="st0" d="M219.4,305.8v-30h30.7v5.1h-23.7v6.7h13.9v5.1h-13.9v7.4h24v5.6L219.4,305.8L219.4,305.8z"/>
	</g>
</g>
<g>
	<g>
		<path class="st1" d="M314.2,281.2h-21.8v19h21.8v-6.7h-11.4v-5.1h18.2v10.3c0,2.7-0.5,4.6-1.5,5.6c-1,1-3,1.5-5.9,1.5h-20.7
			c-2.9,0-4.9-0.5-5.9-1.5s-1.5-2.9-1.5-5.6v-15.8c0-2.7,0.5-4.6,1.5-5.6s3-1.5,5.9-1.5h20.7c2.9,0,4.8,0.5,5.9,1.5
			c1,1,1.6,2.8,1.6,5.3v0.7l-6.8,1.2L314.2,281.2L314.2,281.2z"/>
		<path class="st1" d="M335.7,305.8v-30h25.7c2.4,0,4.1,0.5,5.2,1.4s1.6,2.4,1.6,4.4v7c0,2-0.5,3.5-1.6,4.4
			c-1.1,0.9-2.8,1.4-5.2,1.4h-3.9l13.9,11.3h-10l-12.1-11.3h-6.6v11.3L335.7,305.8L335.7,305.8z M358.3,281h-15.7v8.3h15.7
			c1.2,0,2-0.2,2.5-0.5c0.4-0.4,0.7-1,0.7-1.9v-3.6c0-0.9-0.2-1.5-0.7-1.8C360.3,281.2,359.5,281,358.3,281z"/>
		<path class="st1" d="M381.7,282.9c0-2.7,0.5-4.6,1.5-5.6s3-1.5,5.9-1.5h22.1c2.9,0,4.9,0.5,5.9,1.5s1.5,2.9,1.5,5.6v15.8
			c0,2.7-0.5,4.6-1.5,5.6c-1,1-3,1.5-5.9,1.5h-22.1c-2.9,0-4.9-0.5-5.9-1.5s-1.5-2.9-1.5-5.6V282.9z M388.7,300.2h23v-19h-23V300.2z
			"/>
		<path class="st1" d="M440.3,275.8v24.4h19.9v-24.4h7v22.9c0,2.7-0.5,4.6-1.5,5.6c-1,1-3,1.5-5.9,1.5h-19c-2.9,0-4.9-0.5-5.9-1.5
			c-1-1-1.5-2.9-1.5-5.6v-22.9H440.3z"/>
		<path class="st1" d="M482.5,305.8v-30h25.7c2.4,0,4.1,0.5,5.2,1.4s1.6,2.4,1.6,4.4v6.7c0,2-0.5,3.5-1.6,4.4
			c-1.1,0.9-2.8,1.4-5.2,1.4h-18.8v11.7L482.5,305.8L482.5,305.8z M505.1,281h-15.7v8h15.7c1.2,0,2-0.2,2.5-0.5
			c0.4-0.4,0.7-1,0.7-1.9v-3.2c0-0.9-0.2-1.5-0.7-1.8C507.1,281.2,506.3,281,505.1,281z"/>
	</g>
</g>
</svg>
